<svg width="22" height="28" viewBox="0 0 22 28" fill="none" xmlns="http://www.w3.org/2000/svg">
<path d="M21.3333 11.9992C21.3333 20.6148 10.6667 27.9997 10.6667 27.9997C10.6667 27.9997 0 20.6148 0 11.9992C4.2155e-08 9.06129 1.12381 6.24373 3.12419 4.16634C5.12458 2.08894 7.83769 0.921875 10.6667 0.921875C13.4956 0.921875 16.2087 2.08894 18.2091 4.16634C20.2095 6.24373 21.3333 9.06129 21.3333 11.9992Z" fill="#C7C7C7"/>
<path d="M10.6663 15.6915C12.63 15.6915 14.2218 14.0383 14.2218 11.9991C14.2218 9.9598 12.63 8.30664 10.6663 8.30664C8.70259 8.30664 7.11072 9.9598 7.11072 11.9991C7.11072 14.0383 8.70259 15.6915 10.6663 15.6915Z" fill="#C7C7C7"/>
</svg>
