<svg width="17" height="16" viewBox="0 0 17 16" fill="none" xmlns="http://www.w3.org/2000/svg">
<path d="M13.5052 0H2.87469C2.16274 0.000287483 1.48003 0.283236 0.976603 0.786661C0.473178 1.29009 0.190229 1.97279 0.189941 2.68475V13.3153C0.190229 14.0272 0.473178 14.7099 0.976603 15.2133C1.48003 15.7168 2.16274 15.9997 2.87469 16H13.5052C14.2171 15.9997 14.8999 15.7168 15.4033 15.2133C15.9067 14.7099 16.1897 14.0272 16.1899 13.3153V2.68475C16.1897 1.97279 15.9067 1.29009 15.4033 0.786661C14.8999 0.283236 14.2171 0.000287483 13.5052 0ZM12.7947 6.02847L6.40391 12.4193C6.27532 12.5482 6.11222 12.6373 5.93421 12.6758L4.39984 13.0094C4.24452 13.0431 4.08319 13.0374 3.93067 12.9926C3.77816 12.9478 3.63933 12.8654 3.52693 12.753C3.41453 12.6406 3.33216 12.5018 3.28737 12.3493C3.24259 12.1968 3.23683 12.0355 3.27062 11.8801L3.60418 10.3458C3.64288 10.168 3.73194 10.0051 3.86072 9.87661L10.251 3.48583C10.3391 3.39762 10.4437 3.32764 10.5589 3.27989C10.674 3.23215 10.7975 3.20757 10.9221 3.20757C11.0468 3.20757 11.1703 3.23215 11.2854 3.27989C11.4006 3.32764 11.5052 3.39762 11.5933 3.48583L12.7947 4.6861C12.8828 4.77424 12.9528 4.87888 13.0005 4.99404C13.0482 5.1092 13.0727 5.23264 13.0727 5.35729C13.0727 5.48194 13.0482 5.60537 13.0005 5.72054C12.9528 5.8357 12.8828 5.94034 12.7947 6.02847Z" fill="white"/>
</svg>
