<svg width="151" height="121" viewBox="0 0 151 121" fill="none" xmlns="http://www.w3.org/2000/svg">
<path d="M10.231 120.528C4.58099 120.528 0 115.947 0 110.297V21.361C0 16.836 3.91699 13.167 8.74899 13.167H17.112C20.525 13.167 23.626 11.309 25.056 8.407L26.853 4.761C28.283 1.859 31.384 0.00100708 34.797 0.00100708H74.494C77.588 0.00100708 80.452 1.53201 82.027 4.02701L83.977 7.117C85.551 9.612 88.415 11.143 91.51 11.143H142.115C146.947 11.143 150.864 14.812 150.864 19.337V110.299C150.864 115.949 146.283 120.53 140.633 120.53H10.231V120.528Z" fill="#FF9900"/>
<g opacity="0.3">
<path d="M10.231 120.528C4.58099 120.528 0 115.947 0 110.297V21.361C0 16.836 3.91699 13.167 8.74899 13.167H17.112C20.525 13.167 23.626 11.309 25.056 8.407L26.853 4.761C28.283 1.859 31.384 0.00100708 34.797 0.00100708H74.494C77.588 0.00100708 80.452 1.53201 82.027 4.02701L83.977 7.117C85.551 9.612 88.415 11.143 91.51 11.143H142.115C146.947 11.143 150.864 14.812 150.864 19.337V110.299C150.864 115.949 146.283 120.53 140.633 120.53H10.231V120.528Z" fill="black"/>
</g>
<path d="M86.517 11.141L54.325 11.07L51.449 5.692C49.583 2.203 45.774 0 41.608 0H10.141C4.53999 0 0 4.252 0 9.498V13.167V109.737C0 115.697 5.15899 120.528 11.522 120.528H139.342C145.705 120.528 150.864 115.697 150.864 109.737V18.51C150.864 14.44 147.565 11.141 143.495 11.141H86.517Z" fill="#FF9900"/>
<path d="M100.753 88.101H86.5042C85.9472 88.101 85.4962 87.65 85.4962 87.093C85.4962 86.536 85.9472 86.085 86.5042 86.085H100.753C108.57 86.085 114.93 79.725 114.93 71.908C114.93 64.388 109.043 58.178 101.529 57.77C101.09 57.746 100.717 57.441 100.607 57.015C98.0241 47.004 89.0072 40.013 78.6782 40.013C71.7722 40.013 65.3232 43.116 60.9872 48.525C60.7702 48.795 60.4272 48.939 60.0852 48.896C59.2932 48.804 58.5862 48.76 57.9222 48.76C47.6312 48.76 39.2592 57.132 39.2592 67.423C39.2592 77.713 47.6312 86.085 57.9222 86.085H69.4712C70.0282 86.085 70.4792 86.536 70.4792 87.093C70.4792 87.65 70.0282 88.101 69.4712 88.101H57.9222C46.5202 88.101 37.2432 78.825 37.2432 67.423C37.2432 56.021 46.5202 46.744 57.9222 46.744C58.5042 46.744 59.1112 46.774 59.7652 46.835C64.4792 41.211 71.3412 37.997 78.6782 37.997C89.6852 37.997 99.3242 45.286 102.368 55.813C110.6 56.629 116.947 63.562 116.947 71.907C116.946 80.837 109.682 88.101 100.753 88.101Z" fill="white"/>
<path d="M77.7121 97.198C77.1551 97.198 76.7041 96.747 76.7041 96.19V70.191C76.7041 69.634 77.1551 69.183 77.7121 69.183C78.2691 69.183 78.7201 69.634 78.7201 70.191V96.19C78.7201 96.747 78.2691 97.198 77.7121 97.198Z" fill="white"/>
<path d="M85.3088 80.571C85.0008 80.571 84.6978 80.431 84.4998 80.166L77.8748 71.288C77.8188 71.215 77.7658 71.213 77.6808 71.198C77.6248 71.198 77.5478 71.215 77.4858 71.291L70.4548 79.924C70.1038 80.357 69.4688 80.421 69.0368 80.069C68.6048 79.718 68.5398 79.083 68.8918 78.651L75.9218 70.019C76.3608 69.477 77.0158 69.187 77.7148 69.182C78.4138 69.192 79.0588 69.517 79.4828 70.072L86.1148 78.959C86.4478 79.405 86.3558 80.037 85.9098 80.369C85.7298 80.506 85.5188 80.571 85.3088 80.571Z" fill="white"/>
</svg>
