<svg width="34" height="34" viewBox="0 0 34 34" fill="none" xmlns="http://www.w3.org/2000/svg">
<path d="M22.6663 1.41675C23.0421 1.41675 23.4024 1.566 23.6681 1.83168C23.9338 2.09736 24.083 2.45769 24.083 2.83341V4.25008H31.1663V12.7501H28.3061L32.1963 23.4388C32.4735 24.1579 32.6012 24.926 32.5715 25.6961C32.5418 26.4662 32.3553 27.2222 32.0234 27.9177C31.6915 28.6133 31.2212 29.2339 30.6413 29.7415C30.0614 30.2491 29.3841 30.6331 28.6507 30.8699C27.9173 31.1068 27.1433 31.1916 26.376 31.1191C25.6088 31.0466 24.8644 30.8184 24.1883 30.4483C23.5123 30.0783 22.9188 29.5743 22.4442 28.967C21.9696 28.3598 21.6239 27.6622 21.4282 26.9167H15.4045C15.0825 28.1601 14.3479 29.2573 13.321 30.0286C12.2941 30.8 11.0357 31.1998 9.75185 31.1626C8.46803 31.1254 7.23489 30.6534 6.25434 29.8239C5.27379 28.9944 4.60395 27.8565 4.35451 26.5966C3.89541 26.3568 3.51083 25.9957 3.24258 25.5526C2.97433 25.1095 2.83268 24.6014 2.83301 24.0834V9.91675C2.83301 9.54103 2.98226 9.18069 3.24794 8.91501C3.51362 8.64934 3.87395 8.50008 4.24967 8.50008H14.1663C14.5421 8.50008 14.9024 8.64934 15.1681 8.91501C15.4338 9.18069 15.583 9.54103 15.583 9.91675V17.0001C15.583 17.3758 15.7323 17.7361 15.9979 18.0018C16.2636 18.2675 16.624 18.4167 16.9997 18.4167H19.833C20.2087 18.4167 20.5691 18.2675 20.8347 18.0018C21.1004 17.7361 21.2497 17.3758 21.2497 17.0001V4.25008H16.9997V1.41675H22.6663ZM26.9163 22.6667C26.3138 22.6669 25.727 22.8592 25.2412 23.2156C24.7554 23.572 24.3959 24.074 24.2148 24.6487C24.0337 25.2234 24.0406 25.8408 24.2344 26.4113C24.4282 26.9818 24.7988 27.4757 25.2924 27.8212C25.786 28.1668 26.3769 28.3459 26.9793 28.3327C27.5817 28.3195 28.1642 28.1146 28.6421 27.7478C29.1201 27.381 29.4688 26.8713 29.6373 26.2929C29.8059 25.7144 29.7857 25.0973 29.5797 24.5311L29.5556 24.4687C29.3481 23.9377 28.9851 23.4816 28.5143 23.1601C28.0434 22.8386 27.4865 22.6667 26.9163 22.6667ZM9.91634 22.6667C9.1649 22.6667 8.44423 22.9653 7.91287 23.4966C7.38152 24.028 7.08301 24.7486 7.08301 25.5001C7.08301 26.2515 7.38152 26.9722 7.91287 27.5036C8.44423 28.0349 9.1649 28.3334 9.91634 28.3334C10.6678 28.3334 11.3885 28.0349 11.9198 27.5036C12.4512 26.9722 12.7497 26.2515 12.7497 25.5001C12.7497 24.7486 12.4512 24.028 11.9198 23.4966C11.3885 22.9653 10.6678 22.6667 9.91634 22.6667ZM12.7497 11.3334H5.66634V14.1667H12.7497V11.3334ZM28.333 7.08342H24.083V9.91675H28.333V7.08342Z" fill="black"/>
</svg>
